<svg width="223" height="46" viewBox="0 0 223 46" fill="none" xmlns="http://www.w3.org/2000/svg">
<path d="M16.6548 35.3224C13.1932 35.3224 10.2214 34.5906 7.73956 33.127C5.25768 31.6309 3.34728 29.5655 2.00837 26.9309C0.669451 24.2639 0 21.1902 0 17.71C0 14.2298 0.669451 11.1562 2.00837 8.48909C3.34728 5.82203 5.25768 3.7404 7.73956 2.24424C10.2214 0.748081 13.1932 0 16.6548 0C20.7695 0 24.133 1.02454 26.7456 3.07364C29.3908 5.09021 31.0399 7.93616 31.693 11.6115H24.7862C24.3617 9.75758 23.4472 8.31021 22.0431 7.26939C20.6715 6.19606 18.8427 5.65939 16.5568 5.65939C13.3892 5.65939 10.9072 6.73273 9.11113 8.87939C7.31504 11.0261 6.41698 13.9696 6.41698 17.71C6.41698 21.4504 7.31504 24.3939 9.11113 26.5406C10.9072 28.6548 13.3892 29.7118 16.5568 29.7118C18.8427 29.7118 20.6715 29.2239 22.0431 28.2482C23.4472 27.2399 24.3617 25.8576 24.7862 24.1012H31.693C31.0399 27.6139 29.3908 30.3624 26.7456 32.3464C24.133 34.3304 20.7695 35.3224 16.6548 35.3224ZM44.493 35.3224C42.4029 35.3224 40.6884 34.9972 39.3496 34.3467C38.0106 33.6636 37.0146 32.7691 36.3615 31.6633C35.7084 30.5575 35.3818 29.3378 35.3818 28.0042C35.3818 25.76 36.2636 23.9385 38.027 22.54C39.7905 21.1415 42.4356 20.4421 45.9625 20.4421H52.1346V19.8567C52.1346 18.1979 51.661 16.9782 50.714 16.1976C49.7669 15.417 48.5913 15.0267 47.1871 15.0267C45.9135 15.0267 44.8031 15.3357 43.8562 15.9536C42.9091 16.5391 42.3213 17.4173 42.0927 18.5882H35.9697C36.1329 16.8318 36.7207 15.3031 37.7331 14.0021C38.778 12.7011 40.117 11.7091 41.7498 11.0261C43.3826 10.3105 45.2114 9.95273 47.2361 9.95273C50.6976 9.95273 53.4244 10.8146 55.4165 12.5385C57.4085 14.2624 58.4046 16.7018 58.4046 19.8567V34.737H53.0653L52.4775 30.8339C51.7589 32.1349 50.7466 33.2082 49.4404 34.0539C48.1668 34.8996 46.5176 35.3224 44.493 35.3224ZM45.9135 30.4436C47.7096 30.4436 49.0975 29.8582 50.0772 28.6873C51.0895 27.5164 51.7263 26.069 51.9876 24.3452H46.6483C44.9828 24.3452 43.7908 24.6542 43.0724 25.2721C42.3539 25.8576 41.9948 26.5894 41.9948 27.4676C41.9948 28.4109 42.3539 29.1427 43.0724 29.663C43.7908 30.1834 44.7379 30.4436 45.9135 30.4436ZM73.4501 35.3224C71.2948 35.3224 69.4007 34.9809 67.7679 34.2979C66.1351 33.5824 64.8289 32.6066 63.8492 31.3706C62.8695 30.1346 62.2817 28.7036 62.0857 27.0773H68.4047C68.6007 28.0205 69.1231 28.8336 69.9722 29.5167C70.854 30.1672 71.9806 30.4924 73.3522 30.4924C74.7237 30.4924 75.7197 30.216 76.3402 29.663C76.9933 29.1101 77.3199 28.4758 77.3199 27.7603C77.3199 26.7194 76.8627 26.0202 75.9484 25.6624C75.0339 25.2721 73.7603 24.8981 72.1276 24.5403C71.0825 24.3127 70.0212 24.0361 68.9436 23.7109C67.8659 23.3857 66.8698 22.9791 65.9555 22.4912C65.0738 21.9709 64.3552 21.3203 63.8002 20.5397C63.245 19.7266 62.9674 18.7345 62.9674 17.5636C62.9674 15.417 63.8164 13.6118 65.5146 12.1482C67.2453 10.6845 69.662 9.95273 72.7644 9.95273C75.6381 9.95273 77.924 10.6195 79.6222 11.953C81.3529 13.2866 82.3816 15.1242 82.7082 17.4661H76.7811C76.4218 15.6772 75.0666 14.7827 72.7154 14.7827C71.5397 14.7827 70.6253 15.0104 69.9722 15.4658C69.3517 15.9212 69.0415 16.4903 69.0415 17.1733C69.0415 17.8888 69.515 18.4581 70.4621 18.8809C71.409 19.3037 72.6664 19.694 74.2339 20.0518C75.932 20.4421 77.4831 20.8812 78.8874 21.3691C80.3242 21.8245 81.4672 22.5237 82.3164 23.467C83.1653 24.3776 83.59 25.6949 83.59 27.4188C83.6226 28.9149 83.2307 30.2648 82.4143 31.4682C81.5978 32.6716 80.4222 33.6148 78.8874 34.2979C77.3525 34.9809 75.5401 35.3224 73.4501 35.3224ZM98.2249 34.737C95.6777 34.737 93.6366 34.119 92.1018 32.883C90.5669 31.647 89.7995 29.4516 89.7995 26.2967V15.7585H85.6358V10.5382H89.7995L90.5343 4.04939H96.0695V10.5382H102.633V15.7585H96.0695V26.3455C96.0695 27.5164 96.3145 28.3294 96.8043 28.7848C97.3268 29.2076 98.2085 29.4191 99.4495 29.4191H102.487V34.737H98.2249ZM115.413 35.3224C113.323 35.3224 111.609 34.9972 110.27 34.3467C108.931 33.6636 107.935 32.7691 107.282 31.6633C106.629 30.5575 106.302 29.3378 106.302 28.0042C106.302 25.76 107.184 23.9385 108.947 22.54C110.711 21.1415 113.356 20.4421 116.883 20.4421H123.055V19.8567C123.055 18.1979 122.582 16.9782 121.634 16.1976C120.687 15.417 119.512 15.0267 118.108 15.0267C116.834 15.0267 115.724 15.3357 114.777 15.9536C113.83 16.5391 113.242 17.4173 113.013 18.5882H106.89C107.053 16.8318 107.641 15.3031 108.654 14.0021C109.699 12.7011 111.037 11.7091 112.67 11.0261C114.303 10.3105 116.132 9.95273 118.157 9.95273C121.618 9.95273 124.345 10.8146 126.337 12.5385C128.329 14.2624 129.325 16.7018 129.325 19.8567V34.737H123.986L123.398 30.8339C122.68 32.1349 121.667 33.2082 120.361 34.0539C119.087 34.8996 117.438 35.3224 115.413 35.3224ZM116.834 30.4436C118.63 30.4436 120.018 29.8582 120.998 28.6873C122.01 27.5164 122.647 26.069 122.908 24.3452H117.569C115.903 24.3452 114.711 24.6542 113.993 25.2721C113.274 25.8576 112.915 26.5894 112.915 27.4676C112.915 28.4109 113.274 29.1427 113.993 29.663C114.711 30.1834 115.658 30.4436 116.834 30.4436ZM138.841 34.737L131.738 10.5382H137.959L142.171 27.9555L147.07 10.5382H154.026L158.924 27.9555L163.186 10.5382H169.407L162.255 34.737H155.74L150.548 16.6367L145.355 34.737H138.841ZM179.516 35.3224C177.426 35.3224 175.712 34.9972 174.373 34.3467C173.035 33.6636 172.038 32.7691 171.384 31.6633C170.732 30.5575 170.405 29.3378 170.405 28.0042C170.405 25.76 171.287 23.9385 173.05 22.54C174.813 21.1415 177.459 20.4421 180.985 20.4421H187.158V19.8567C187.158 18.1979 186.684 16.9782 185.737 16.1976C184.791 15.417 183.615 15.0267 182.21 15.0267C180.936 15.0267 179.827 15.3357 178.879 15.9536C177.933 16.5391 177.345 17.4173 177.116 18.5882H170.993C171.156 16.8318 171.744 15.3031 172.756 14.0021C173.802 12.7011 175.141 11.7091 176.773 11.0261C178.406 10.3105 180.235 9.95273 182.259 9.95273C185.722 9.95273 188.448 10.8146 190.439 12.5385C192.432 14.2624 193.428 16.7018 193.428 19.8567V34.737H188.088L187.5 30.8339C186.782 32.1349 185.771 33.2082 184.463 34.0539C183.19 34.8996 181.541 35.3224 179.516 35.3224ZM180.936 30.4436C182.734 30.4436 184.12 29.8582 185.1 28.6873C186.113 27.5164 186.75 26.069 187.011 24.3452H181.671C180.006 24.3452 178.815 24.6542 178.095 25.2721C177.377 25.8576 177.018 26.5894 177.018 27.4676C177.018 28.4109 177.377 29.1427 178.095 29.663C178.815 30.1834 179.761 30.4436 180.936 30.4436ZM200.655 45.4703L206.288 33.127H204.819L195.365 10.5382H202.173L208.982 27.5652L216.085 10.5382H222.747L207.317 45.4703H200.655Z" fill="white"/>
</svg>
